<mxfile host="app.diagrams.net" modified="2024-04-01T11:55:13.987Z" agent="Mozilla/5.0 (X11; Linux x86_64) AppleWebKit/537.36 (KHTML, like Gecko) Chrome/121.0.0.0 Safari/537.36 Edg/121.0.0.0" etag="0iy7zHZv6gb8pnibaA3O" version="24.2.1" type="github">
  <diagram id="R2lEEEUBdFMjLlhIrx00" name="Page-1">
    <mxGraphModel dx="1386" dy="1899" grid="1" gridSize="10" guides="1" tooltips="1" connect="1" arrows="1" fold="1" page="1" pageScale="1" pageWidth="850" pageHeight="1100" math="0" shadow="0" extFonts="Permanent Marker^https://fonts.googleapis.com/css?family=Permanent+Marker">
      <root>
        <mxCell id="0" />
        <mxCell id="1" parent="0" />
        <mxCell id="BdK4c85hA30IfFsPaLP0-32" style="edgeStyle=orthogonalEdgeStyle;rounded=0;orthogonalLoop=1;jettySize=auto;html=1;entryX=1;entryY=0.5;entryDx=0;entryDy=0;" parent="1" source="BdK4c85hA30IfFsPaLP0-1" target="BdK4c85hA30IfFsPaLP0-30" edge="1">
          <mxGeometry relative="1" as="geometry">
            <Array as="points">
              <mxPoint x="528" y="-530" />
              <mxPoint x="528" y="-440" />
            </Array>
          </mxGeometry>
        </mxCell>
        <mxCell id="BdK4c85hA30IfFsPaLP0-67" style="edgeStyle=orthogonalEdgeStyle;rounded=0;orthogonalLoop=1;jettySize=auto;html=1;entryX=1;entryY=0.5;entryDx=0;entryDy=0;" parent="1" source="BdK4c85hA30IfFsPaLP0-1" target="BdK4c85hA30IfFsPaLP0-64" edge="1">
          <mxGeometry relative="1" as="geometry" />
        </mxCell>
        <mxCell id="BdK4c85hA30IfFsPaLP0-80" style="edgeStyle=orthogonalEdgeStyle;rounded=0;orthogonalLoop=1;jettySize=auto;html=1;entryX=1;entryY=0.5;entryDx=0;entryDy=0;" parent="1" source="BdK4c85hA30IfFsPaLP0-1" target="BdK4c85hA30IfFsPaLP0-78" edge="1">
          <mxGeometry relative="1" as="geometry">
            <mxPoint x="650" y="-820" as="targetPoint" />
            <Array as="points">
              <mxPoint x="680" y="-780" />
            </Array>
          </mxGeometry>
        </mxCell>
        <mxCell id="BdK4c85hA30IfFsPaLP0-1" value="&lt;span style=&quot;font-size: 18px;&quot;&gt;خودرو&lt;/span&gt;" style="rounded=1;whiteSpace=wrap;html=1;" parent="1" vertex="1">
          <mxGeometry x="613" y="-580" width="120" height="60" as="geometry" />
        </mxCell>
        <mxCell id="BdK4c85hA30IfFsPaLP0-8" style="edgeStyle=orthogonalEdgeStyle;rounded=0;orthogonalLoop=1;jettySize=auto;html=1;entryX=1;entryY=0.5;entryDx=0;entryDy=0;" parent="1" source="BdK4c85hA30IfFsPaLP0-2" target="BdK4c85hA30IfFsPaLP0-1" edge="1">
          <mxGeometry relative="1" as="geometry" />
        </mxCell>
        <mxCell id="BdK4c85hA30IfFsPaLP0-2" value="مدل" style="ellipse;whiteSpace=wrap;html=1;aspect=fixed;" parent="1" vertex="1">
          <mxGeometry x="783" y="-575" width="50" height="50" as="geometry" />
        </mxCell>
        <mxCell id="BdK4c85hA30IfFsPaLP0-7" style="edgeStyle=orthogonalEdgeStyle;rounded=0;orthogonalLoop=1;jettySize=auto;html=1;entryX=1;entryY=0;entryDx=0;entryDy=0;" parent="1" source="BdK4c85hA30IfFsPaLP0-3" target="BdK4c85hA30IfFsPaLP0-1" edge="1">
          <mxGeometry relative="1" as="geometry" />
        </mxCell>
        <mxCell id="BdK4c85hA30IfFsPaLP0-3" value="پلاک&amp;nbsp;&lt;div&gt;شناسه&lt;/div&gt;" style="ellipse;whiteSpace=wrap;html=1;aspect=fixed;" parent="1" vertex="1">
          <mxGeometry x="763" y="-675" width="65" height="65" as="geometry" />
        </mxCell>
        <mxCell id="BdK4c85hA30IfFsPaLP0-6" style="edgeStyle=orthogonalEdgeStyle;rounded=0;orthogonalLoop=1;jettySize=auto;html=1;" parent="1" source="BdK4c85hA30IfFsPaLP0-5" target="BdK4c85hA30IfFsPaLP0-1" edge="1">
          <mxGeometry relative="1" as="geometry" />
        </mxCell>
        <mxCell id="BdK4c85hA30IfFsPaLP0-5" value="دسته دو&lt;div&gt;یا جدید&lt;/div&gt;" style="ellipse;whiteSpace=wrap;html=1;aspect=fixed;" parent="1" vertex="1">
          <mxGeometry x="710" y="-480" width="60" height="60" as="geometry" />
        </mxCell>
        <mxCell id="BdK4c85hA30IfFsPaLP0-31" value="" style="edgeStyle=orthogonalEdgeStyle;rounded=0;orthogonalLoop=1;jettySize=auto;html=1;" parent="1" source="BdK4c85hA30IfFsPaLP0-10" target="BdK4c85hA30IfFsPaLP0-30" edge="1">
          <mxGeometry relative="1" as="geometry">
            <Array as="points">
              <mxPoint x="398" y="-630" />
            </Array>
          </mxGeometry>
        </mxCell>
        <mxCell id="BdK4c85hA30IfFsPaLP0-54" style="edgeStyle=orthogonalEdgeStyle;rounded=0;orthogonalLoop=1;jettySize=auto;html=1;entryX=0.5;entryY=0;entryDx=0;entryDy=0;" parent="1" source="BdK4c85hA30IfFsPaLP0-10" target="BdK4c85hA30IfFsPaLP0-52" edge="1">
          <mxGeometry relative="1" as="geometry" />
        </mxCell>
        <mxCell id="BdK4c85hA30IfFsPaLP0-65" value="" style="edgeStyle=orthogonalEdgeStyle;rounded=0;orthogonalLoop=1;jettySize=auto;html=1;" parent="1" source="BdK4c85hA30IfFsPaLP0-10" target="BdK4c85hA30IfFsPaLP0-64" edge="1">
          <mxGeometry relative="1" as="geometry" />
        </mxCell>
        <mxCell id="BdK4c85hA30IfFsPaLP0-10" value="&lt;span style=&quot;font-size: 18px;&quot;&gt;مشتری&lt;/span&gt;" style="rounded=1;whiteSpace=wrap;html=1;" parent="1" vertex="1">
          <mxGeometry x="123" y="-680" width="120" height="60" as="geometry" />
        </mxCell>
        <mxCell id="BdK4c85hA30IfFsPaLP0-19" style="edgeStyle=orthogonalEdgeStyle;rounded=0;orthogonalLoop=1;jettySize=auto;html=1;" parent="1" source="BdK4c85hA30IfFsPaLP0-11" target="BdK4c85hA30IfFsPaLP0-10" edge="1">
          <mxGeometry relative="1" as="geometry" />
        </mxCell>
        <mxCell id="BdK4c85hA30IfFsPaLP0-11" value="تلفن" style="ellipse;whiteSpace=wrap;html=1;aspect=fixed;" parent="1" vertex="1">
          <mxGeometry x="43" y="-675" width="50" height="50" as="geometry" />
        </mxCell>
        <mxCell id="BdK4c85hA30IfFsPaLP0-12" value="شناسه" style="ellipse;whiteSpace=wrap;html=1;aspect=fixed;" parent="1" vertex="1">
          <mxGeometry x="18" y="-730" width="50" height="50" as="geometry" />
        </mxCell>
        <mxCell id="BdK4c85hA30IfFsPaLP0-18" style="edgeStyle=orthogonalEdgeStyle;rounded=0;orthogonalLoop=1;jettySize=auto;html=1;" parent="1" source="BdK4c85hA30IfFsPaLP0-13" target="BdK4c85hA30IfFsPaLP0-10" edge="1">
          <mxGeometry relative="1" as="geometry" />
        </mxCell>
        <mxCell id="BdK4c85hA30IfFsPaLP0-13" value="نام" style="ellipse;whiteSpace=wrap;html=1;aspect=fixed;" parent="1" vertex="1">
          <mxGeometry x="63" y="-810" width="60" height="60" as="geometry" />
        </mxCell>
        <mxCell id="BdK4c85hA30IfFsPaLP0-17" style="edgeStyle=orthogonalEdgeStyle;rounded=0;orthogonalLoop=1;jettySize=auto;html=1;entryX=0.083;entryY=0.083;entryDx=0;entryDy=0;entryPerimeter=0;" parent="1" source="BdK4c85hA30IfFsPaLP0-12" target="BdK4c85hA30IfFsPaLP0-10" edge="1">
          <mxGeometry relative="1" as="geometry" />
        </mxCell>
        <mxCell id="BdK4c85hA30IfFsPaLP0-33" style="edgeStyle=orthogonalEdgeStyle;rounded=0;orthogonalLoop=1;jettySize=auto;html=1;entryX=0;entryY=0.5;entryDx=0;entryDy=0;" parent="1" source="BdK4c85hA30IfFsPaLP0-20" target="BdK4c85hA30IfFsPaLP0-30" edge="1">
          <mxGeometry relative="1" as="geometry" />
        </mxCell>
        <mxCell id="BdK4c85hA30IfFsPaLP0-56" value="" style="edgeStyle=orthogonalEdgeStyle;rounded=0;orthogonalLoop=1;jettySize=auto;html=1;" parent="1" source="BdK4c85hA30IfFsPaLP0-20" target="BdK4c85hA30IfFsPaLP0-55" edge="1">
          <mxGeometry relative="1" as="geometry" />
        </mxCell>
        <mxCell id="BdK4c85hA30IfFsPaLP0-20" value="&lt;span style=&quot;font-size: 18px;&quot;&gt;فروشنده&lt;/span&gt;" style="rounded=1;whiteSpace=wrap;html=1;" parent="1" vertex="1">
          <mxGeometry x="123" y="-195" width="120" height="60" as="geometry" />
        </mxCell>
        <mxCell id="BdK4c85hA30IfFsPaLP0-27" style="edgeStyle=orthogonalEdgeStyle;rounded=0;orthogonalLoop=1;jettySize=auto;html=1;" parent="1" source="BdK4c85hA30IfFsPaLP0-21" target="BdK4c85hA30IfFsPaLP0-20" edge="1">
          <mxGeometry relative="1" as="geometry" />
        </mxCell>
        <mxCell id="BdK4c85hA30IfFsPaLP0-21" value="تلفن" style="ellipse;whiteSpace=wrap;html=1;aspect=fixed;" parent="1" vertex="1">
          <mxGeometry x="23" y="-190" width="50" height="50" as="geometry" />
        </mxCell>
        <mxCell id="BdK4c85hA30IfFsPaLP0-22" value="شناسه" style="ellipse;whiteSpace=wrap;html=1;aspect=fixed;" parent="1" vertex="1">
          <mxGeometry x="73" y="-280" width="50" height="50" as="geometry" />
        </mxCell>
        <mxCell id="BdK4c85hA30IfFsPaLP0-29" style="edgeStyle=orthogonalEdgeStyle;rounded=0;orthogonalLoop=1;jettySize=auto;html=1;entryX=0.25;entryY=1;entryDx=0;entryDy=0;" parent="1" target="BdK4c85hA30IfFsPaLP0-20" edge="1">
          <mxGeometry relative="1" as="geometry">
            <mxPoint x="113" y="-85" as="sourcePoint" />
          </mxGeometry>
        </mxCell>
        <mxCell id="BdK4c85hA30IfFsPaLP0-24" value="نام" style="ellipse;whiteSpace=wrap;html=1;aspect=fixed;" parent="1" vertex="1">
          <mxGeometry x="53" y="-120" width="60" height="60" as="geometry" />
        </mxCell>
        <mxCell id="BdK4c85hA30IfFsPaLP0-25" style="edgeStyle=orthogonalEdgeStyle;rounded=0;orthogonalLoop=1;jettySize=auto;html=1;entryX=0.083;entryY=0.083;entryDx=0;entryDy=0;entryPerimeter=0;" parent="1" source="BdK4c85hA30IfFsPaLP0-22" target="BdK4c85hA30IfFsPaLP0-20" edge="1">
          <mxGeometry relative="1" as="geometry" />
        </mxCell>
        <mxCell id="BdK4c85hA30IfFsPaLP0-30" value="&lt;font style=&quot;font-size: 18px;&quot;&gt;خرید&amp;nbsp;&lt;/font&gt;&lt;div&gt;&lt;font size=&quot;3&quot;&gt;کردن&lt;/font&gt;&lt;/div&gt;" style="rhombus;whiteSpace=wrap;html=1;rounded=1;" parent="1" vertex="1">
          <mxGeometry x="353" y="-490" width="90" height="100" as="geometry" />
        </mxCell>
        <mxCell id="BdK4c85hA30IfFsPaLP0-34" value="&lt;font style=&quot;font-size: 18px;&quot;&gt;1&lt;/font&gt;" style="text;html=1;align=center;verticalAlign=middle;whiteSpace=wrap;rounded=0;" parent="1" vertex="1">
          <mxGeometry x="233" y="-170" width="50" height="40" as="geometry" />
        </mxCell>
        <mxCell id="BdK4c85hA30IfFsPaLP0-35" value="&lt;font style=&quot;font-size: 18px;&quot;&gt;1&lt;/font&gt;" style="text;html=1;align=center;verticalAlign=middle;whiteSpace=wrap;rounded=0;" parent="1" vertex="1">
          <mxGeometry x="230" y="-630" width="50" height="40" as="geometry" />
        </mxCell>
        <mxCell id="BdK4c85hA30IfFsPaLP0-36" value="&lt;span style=&quot;font-size: 18px;&quot;&gt;n&lt;/span&gt;" style="text;html=1;align=center;verticalAlign=middle;whiteSpace=wrap;rounded=0;" parent="1" vertex="1">
          <mxGeometry x="510" y="-915" width="50" height="40" as="geometry" />
        </mxCell>
        <mxCell id="BdK4c85hA30IfFsPaLP0-53" value="" style="edgeStyle=orthogonalEdgeStyle;rounded=0;orthogonalLoop=1;jettySize=auto;html=1;" parent="1" source="BdK4c85hA30IfFsPaLP0-45" target="BdK4c85hA30IfFsPaLP0-52" edge="1">
          <mxGeometry relative="1" as="geometry" />
        </mxCell>
        <mxCell id="BdK4c85hA30IfFsPaLP0-57" style="edgeStyle=orthogonalEdgeStyle;rounded=0;orthogonalLoop=1;jettySize=auto;html=1;entryX=0.5;entryY=0;entryDx=0;entryDy=0;" parent="1" source="BdK4c85hA30IfFsPaLP0-45" target="BdK4c85hA30IfFsPaLP0-55" edge="1">
          <mxGeometry relative="1" as="geometry" />
        </mxCell>
        <mxCell id="BdK4c85hA30IfFsPaLP0-45" value="&lt;span style=&quot;font-size: 18px;&quot;&gt;فاکتور&lt;/span&gt;" style="rounded=1;whiteSpace=wrap;html=1;" parent="1" vertex="1">
          <mxGeometry x="103" y="-460" width="120" height="60" as="geometry" />
        </mxCell>
        <mxCell id="BdK4c85hA30IfFsPaLP0-50" style="edgeStyle=orthogonalEdgeStyle;rounded=0;orthogonalLoop=1;jettySize=auto;html=1;entryX=0;entryY=0.5;entryDx=0;entryDy=0;" parent="1" source="BdK4c85hA30IfFsPaLP0-46" target="BdK4c85hA30IfFsPaLP0-45" edge="1">
          <mxGeometry relative="1" as="geometry" />
        </mxCell>
        <mxCell id="BdK4c85hA30IfFsPaLP0-46" value="مدل&amp;nbsp;&lt;div&gt;خودرو&lt;/div&gt;" style="ellipse;whiteSpace=wrap;html=1;aspect=fixed;" parent="1" vertex="1">
          <mxGeometry x="23" y="-455" width="50" height="50" as="geometry" />
        </mxCell>
        <mxCell id="BdK4c85hA30IfFsPaLP0-47" value="نام&amp;nbsp;&lt;div&gt;فروشنده&lt;/div&gt;" style="ellipse;whiteSpace=wrap;html=1;aspect=fixed;" parent="1" vertex="1">
          <mxGeometry x="53" y="-545" width="50" height="50" as="geometry" />
        </mxCell>
        <mxCell id="BdK4c85hA30IfFsPaLP0-51" style="edgeStyle=orthogonalEdgeStyle;rounded=0;orthogonalLoop=1;jettySize=auto;html=1;" parent="1" source="BdK4c85hA30IfFsPaLP0-48" target="BdK4c85hA30IfFsPaLP0-45" edge="1">
          <mxGeometry relative="1" as="geometry">
            <Array as="points">
              <mxPoint x="113" y="-360" />
            </Array>
          </mxGeometry>
        </mxCell>
        <mxCell id="BdK4c85hA30IfFsPaLP0-48" value="نام&amp;nbsp;&lt;div&gt;مشتری&lt;/div&gt;" style="ellipse;whiteSpace=wrap;html=1;aspect=fixed;" parent="1" vertex="1">
          <mxGeometry x="18" y="-390" width="60" height="60" as="geometry" />
        </mxCell>
        <mxCell id="BdK4c85hA30IfFsPaLP0-49" style="edgeStyle=orthogonalEdgeStyle;rounded=0;orthogonalLoop=1;jettySize=auto;html=1;entryX=0.083;entryY=0.083;entryDx=0;entryDy=0;entryPerimeter=0;" parent="1" source="BdK4c85hA30IfFsPaLP0-47" target="BdK4c85hA30IfFsPaLP0-45" edge="1">
          <mxGeometry relative="1" as="geometry" />
        </mxCell>
        <mxCell id="BdK4c85hA30IfFsPaLP0-52" value="صدور" style="rhombus;whiteSpace=wrap;html=1;rounded=1;" parent="1" vertex="1">
          <mxGeometry x="138" y="-570" width="50" height="40" as="geometry" />
        </mxCell>
        <mxCell id="BdK4c85hA30IfFsPaLP0-55" value="صدور" style="rhombus;whiteSpace=wrap;html=1;rounded=1;" parent="1" vertex="1">
          <mxGeometry x="143" y="-345" width="50" height="55" as="geometry" />
        </mxCell>
        <mxCell id="BdK4c85hA30IfFsPaLP0-58" value="&lt;span style=&quot;font-size: 18px;&quot;&gt;1&lt;/span&gt;" style="text;html=1;align=center;verticalAlign=middle;whiteSpace=wrap;rounded=0;" parent="1" vertex="1">
          <mxGeometry x="143" y="-630" width="50" height="40" as="geometry" />
        </mxCell>
        <mxCell id="BdK4c85hA30IfFsPaLP0-59" value="&lt;font style=&quot;font-size: 18px;&quot;&gt;n&lt;/font&gt;" style="text;html=1;align=center;verticalAlign=middle;whiteSpace=wrap;rounded=0;" parent="1" vertex="1">
          <mxGeometry x="153" y="-495" width="50" height="40" as="geometry" />
        </mxCell>
        <mxCell id="BdK4c85hA30IfFsPaLP0-60" value="&lt;font style=&quot;font-size: 18px;&quot;&gt;1&lt;/font&gt;" style="text;html=1;align=center;verticalAlign=middle;whiteSpace=wrap;rounded=0;" parent="1" vertex="1">
          <mxGeometry x="143" y="-230" width="50" height="40" as="geometry" />
        </mxCell>
        <mxCell id="BdK4c85hA30IfFsPaLP0-61" value="&lt;font style=&quot;font-size: 18px;&quot;&gt;n&lt;/font&gt;" style="text;html=1;align=center;verticalAlign=middle;whiteSpace=wrap;rounded=0;" parent="1" vertex="1">
          <mxGeometry x="153" y="-405" width="50" height="40" as="geometry" />
        </mxCell>
        <mxCell id="BdK4c85hA30IfFsPaLP0-64" value="تعلق" style="rhombus;whiteSpace=wrap;html=1;rounded=1;" parent="1" vertex="1">
          <mxGeometry x="425" y="-705" width="75" height="65" as="geometry" />
        </mxCell>
        <mxCell id="BdK4c85hA30IfFsPaLP0-68" value="&lt;font style=&quot;font-size: 18px;&quot;&gt;1&lt;/font&gt;" style="text;html=1;align=center;verticalAlign=middle;whiteSpace=wrap;rounded=0;" parent="1" vertex="1">
          <mxGeometry x="230" y="-680" width="50" height="40" as="geometry" />
        </mxCell>
        <mxCell id="BdK4c85hA30IfFsPaLP0-69" value="&lt;span style=&quot;font-size: 18px;&quot;&gt;n&lt;/span&gt;" style="text;html=1;align=center;verticalAlign=middle;whiteSpace=wrap;rounded=0;" parent="1" vertex="1">
          <mxGeometry x="580" y="-585" width="50" height="40" as="geometry" />
        </mxCell>
        <mxCell id="BdK4c85hA30IfFsPaLP0-79" value="" style="edgeStyle=orthogonalEdgeStyle;rounded=0;orthogonalLoop=1;jettySize=auto;html=1;" parent="1" source="BdK4c85hA30IfFsPaLP0-70" target="BdK4c85hA30IfFsPaLP0-78" edge="1">
          <mxGeometry relative="1" as="geometry" />
        </mxCell>
        <mxCell id="BdK4c85hA30IfFsPaLP0-70" value="&lt;font style=&quot;font-size: 18px;&quot;&gt;قطعه&lt;/font&gt;" style="rounded=0;whiteSpace=wrap;html=1;" parent="1" vertex="1">
          <mxGeometry x="550" y="-900" width="100" height="50" as="geometry" />
        </mxCell>
        <mxCell id="BdK4c85hA30IfFsPaLP0-73" style="edgeStyle=orthogonalEdgeStyle;rounded=0;orthogonalLoop=1;jettySize=auto;html=1;entryX=1;entryY=0.5;entryDx=0;entryDy=0;" parent="1" source="BdK4c85hA30IfFsPaLP0-72" target="BdK4c85hA30IfFsPaLP0-70" edge="1">
          <mxGeometry relative="1" as="geometry" />
        </mxCell>
        <mxCell id="BdK4c85hA30IfFsPaLP0-72" value="اسم&amp;nbsp;&lt;div&gt;قطعه&lt;/div&gt;" style="ellipse;whiteSpace=wrap;html=1;aspect=fixed;" parent="1" vertex="1">
          <mxGeometry x="703" y="-925" width="60" height="60" as="geometry" />
        </mxCell>
        <mxCell id="BdK4c85hA30IfFsPaLP0-77" style="edgeStyle=orthogonalEdgeStyle;rounded=0;orthogonalLoop=1;jettySize=auto;html=1;" parent="1" source="BdK4c85hA30IfFsPaLP0-74" target="BdK4c85hA30IfFsPaLP0-70" edge="1">
          <mxGeometry relative="1" as="geometry" />
        </mxCell>
        <mxCell id="BdK4c85hA30IfFsPaLP0-74" value="&lt;div&gt;کد قطعه&lt;/div&gt;" style="ellipse;whiteSpace=wrap;html=1;aspect=fixed;" parent="1" vertex="1">
          <mxGeometry x="630" y="-1000" width="60" height="60" as="geometry" />
        </mxCell>
        <mxCell id="BdK4c85hA30IfFsPaLP0-78" value="خدمات" style="rhombus;whiteSpace=wrap;html=1;rounded=0;" parent="1" vertex="1">
          <mxGeometry x="420" y="-820" width="80" height="80" as="geometry" />
        </mxCell>
        <mxCell id="BdK4c85hA30IfFsPaLP0-81" style="edgeStyle=orthogonalEdgeStyle;rounded=0;orthogonalLoop=1;jettySize=auto;html=1;entryX=0.808;entryY=-0.067;entryDx=0;entryDy=0;entryPerimeter=0;" parent="1" source="BdK4c85hA30IfFsPaLP0-78" target="BdK4c85hA30IfFsPaLP0-10" edge="1">
          <mxGeometry relative="1" as="geometry" />
        </mxCell>
        <mxCell id="BdK4c85hA30IfFsPaLP0-82" value="&lt;font style=&quot;font-size: 18px;&quot;&gt;1&lt;/font&gt;" style="text;html=1;align=center;verticalAlign=middle;whiteSpace=wrap;rounded=0;" parent="1" vertex="1">
          <mxGeometry x="183" y="-720" width="50" height="40" as="geometry" />
        </mxCell>
        <mxCell id="BdK4c85hA30IfFsPaLP0-83" value="&lt;font style=&quot;font-size: 18px;&quot;&gt;1&lt;/font&gt;" style="text;html=1;align=center;verticalAlign=middle;whiteSpace=wrap;rounded=0;" parent="1" vertex="1">
          <mxGeometry x="670" y="-615" width="50" height="40" as="geometry" />
        </mxCell>
        <mxCell id="BdK4c85hA30IfFsPaLP0-86" style="edgeStyle=orthogonalEdgeStyle;rounded=0;orthogonalLoop=1;jettySize=auto;html=1;entryX=0;entryY=0;entryDx=0;entryDy=0;" parent="1" target="BdK4c85hA30IfFsPaLP0-78" edge="1">
          <mxGeometry relative="1" as="geometry">
            <mxPoint x="353" y="-870" as="sourcePoint" />
          </mxGeometry>
        </mxCell>
        <mxCell id="BdK4c85hA30IfFsPaLP0-88" value="تاریخ" style="ellipse;shape=doubleEllipse;whiteSpace=wrap;html=1;aspect=fixed;" parent="1" vertex="1">
          <mxGeometry x="283" y="-900" width="75" height="75" as="geometry" />
        </mxCell>
        <mxCell id="-gWLIyil4Ww7O29579u7-1" value="&lt;span style=&quot;font-size: 18px;&quot;&gt;n&lt;/span&gt;" style="text;html=1;align=center;verticalAlign=middle;whiteSpace=wrap;rounded=0;" vertex="1" parent="1">
          <mxGeometry x="580" y="-535" width="50" height="40" as="geometry" />
        </mxCell>
      </root>
    </mxGraphModel>
  </diagram>
</mxfile>
